# xmcd
#
# Track frame offsets:
#	183
#	13098
#	26720
#	46295
#	57753
#	67513
#	81618
#	99360
#	111323
#	120178
#	131763
#	143318
#	152208
#	161213
#	173243
#	186310
#
# Disc length: 2671 seconds
#
# Revision: 1
# Processed by: cddbd v1.5.1PL2 Copyright (c) Steve Scherf et al.
# Submitted via: audiograbber 1.83.01
#
DISCID=d10a6d10
DTITLE=Varius - Romantic Favourites - Cd3
DYEAR=1993
DGENRE=Blues
TTITLE0=Percy Sledge - My Special Prayer
TTITLE1=Paul Young and The Q-Tips-Love - Hurts
TTITLE2=Billy Joe Royal - To Love Somebody
TTITLE3=John Travolta - Sandy
TTITLE4=Little Anthony and The Imperials - Tears On My Pillow
TTITLE5=Jackie Wilson - For Once In My Life
TTITLE6=The Marmalade - Reflections Of My Life
TTITLE7=The Troggs - Love Is All Around
TTITLE8=The Mindbenders - A Groovy Kind
TTITLE9=Gerry and The Pacemakers - Don't Let The Sun Catch You Cryring
TTITLE10=The Brotherhood Of Man - Chanson D'amour
TTITLE11=Trini Lopez - Amor
TTITLE12=The Shirelles - Dedicated To The On I Love
TTITLE13=Aretha Franklin - You Make Me Feel (Like A Natural Woman)
TTITLE14=Freddy Fender - Silver Wings
TTITLE15=Percy Sledge - Warm And Tender
EXTD=
EXTT0=
EXTT1=
EXTT2=
EXTT3=
EXTT4=
EXTT5=
EXTT6=
EXTT7=
EXTT8=
EXTT9=
EXTT10=
EXTT11=
EXTT12=
EXTT13=
EXTT14=
EXTT15=
PLAYORDER=
